<?xml version="1.0" encoding="UTF-8" standalone="no"?>
<!-- Created with Inkscape (http://www.inkscape.org/) -->

<svg
   width="100mm"
   height="100mm"
   viewBox="0 0 99.999998 100"
   version="1.1"
   id="svg8"
   inkscape:version="1.1 (c68e22c387, 2021-05-23)"
   sodipodi:docname="cannon.svg"
   inkscape:export-filename="C:\Users\arsen\Documents\dev\Web\gamesRule\static\images\gameIcons\tokaido.png"
   inkscape:export-xdpi="96"
   inkscape:export-ydpi="96"
   xmlns:inkscape="http://www.inkscape.org/namespaces/inkscape"
   xmlns:sodipodi="http://sodipodi.sourceforge.net/DTD/sodipodi-0.dtd"
   xmlns="http://www.w3.org/2000/svg"
   xmlns:svg="http://www.w3.org/2000/svg"
   xmlns:rdf="http://www.w3.org/1999/02/22-rdf-syntax-ns#"
   xmlns:cc="http://creativecommons.org/ns#"
   xmlns:dc="http://purl.org/dc/elements/1.1/">
  <defs
     id="defs2" />
  <sodipodi:namedview
     id="base"
     pagecolor="#ffffff"
     bordercolor="#666666"
     borderopacity="1.0"
     inkscape:pageopacity="0.0"
     inkscape:pageshadow="2"
     inkscape:zoom="1"
     inkscape:cx="191.5"
     inkscape:cy="191.5"
     inkscape:document-units="mm"
     inkscape:current-layer="g10486"
     showgrid="false"
     inkscape:window-width="1920"
     inkscape:window-height="1017"
     inkscape:window-x="-8"
     inkscape:window-y="-8"
     inkscape:window-maximized="1"
     fit-margin-top="0"
     fit-margin-left="0"
     fit-margin-right="0"
     fit-margin-bottom="0"
     inkscape:pagecheckerboard="0"
     inkscape:snap-global="false" />
  <metadata
     id="metadata5">
    <rdf:RDF>
      <cc:Work
         rdf:about="">
        <dc:format>image/svg+xml</dc:format>
        <dc:type
           rdf:resource="http://purl.org/dc/dcmitype/StillImage" />
      </cc:Work>
    </rdf:RDF>
  </metadata>
  <g
     inkscape:label="Layer 1"
     inkscape:groupmode="layer"
     id="layer1"
     transform="translate(531.01809,531.30599)">
    <g
       id="g10486"
       transform="matrix(2.1085185,0,0,2.1085185,533.05108,541.61045)">
      <path
         style="fill:#000000;stroke-width:0.259566"
         d="m -504.25907,-476.54031 c -0.25073,-0.78997 -0.0165,-0.92044 2.29948,-1.28132 3.74073,-0.58285 7.00453,-2.03652 9.31648,-4.1495 1.51126,-1.38121 1.75167,-1.51658 1.75581,-0.98861 10e-4,0.17845 0.28704,0.93551 0.63477,1.68239 l 0.63221,1.35794 -1.63417,0.91389 c -2.8853,1.61354 -6.23792,2.51901 -10.57779,2.85685 -2.15587,0.1678 -2.25427,0.15193 -2.42679,-0.39164 z m 21.21539,-0.28424 c -5.05425,-0.64539 -8.47389,-5.69965 -7.20826,-10.65387 1.46356,-5.72906 7.65359,-8.40451 12.7591,-5.51472 1.31983,0.74704 2.47773,2.04264 3.40804,3.81337 0.62254,1.18488 0.71075,1.64365 0.70933,3.68925 -0.002,2.86512 -0.60517,4.40924 -2.40892,6.1671 -2.13499,2.08066 -4.40768,2.86298 -7.25929,2.49887 z m 0.71957,-3.57293 v -2.56418 l -0.76305,-0.31607 c -0.41968,-0.17382 -0.85769,-0.26316 -0.97337,-0.19851 -0.11565,0.0648 -1.06863,0.61335 -2.11763,1.21935 l -1.90729,1.10182 0.86902,0.90493 c 1.15235,1.19998 3.0496,2.16534 4.69763,2.39028 0.10704,0.0145 0.19469,-1.12732 0.19469,-2.53762 z m 4.32874,1.38151 c 1.17655,-0.68795 2.22991,-1.85207 2.08164,-2.3005 -0.0511,-0.1543 -0.98791,-0.78297 -2.08197,-1.39702 -1.96672,-1.10382 -1.99646,-1.11117 -2.63152,-0.6489 -0.60551,0.44072 -0.6428,0.61104 -0.65049,2.97072 l -0.008,2.50319 1.10316,-0.24675 c 0.60674,-0.13573 1.59104,-0.53204 2.18735,-0.88074 z m -8.34488,-4.30625 c 1.70702,-0.97121 1.90197,-1.16457 1.99726,-1.98077 0.0986,-0.84445 0.0183,-0.9601 -1.20899,-1.7419 -0.72301,-0.46059 -1.68971,-1.02998 -2.14821,-1.26534 -0.80883,-0.41519 -0.84327,-0.41049 -1.15701,0.15762 -0.67472,1.22175 -0.29916,5.90667 0.4735,5.90667 0.0836,0 1.00304,-0.48433 2.04345,-1.07628 z m -2.0704,0.0595 c -0.34608,-0.56 -0.43313,-2.57834 -0.1556,-3.60893 l 0.30053,-1.11616 1.60807,0.90111 c 1.35912,0.76159 1.62053,1.02344 1.68854,1.69126 0.0745,0.73125 -0.0362,0.84906 -1.4851,1.58045 -1.74908,0.88293 -1.75163,0.88367 -1.95644,0.55227 z m 13.58857,0.19931 c 0.37822,-1.085 0.36276,-3.73252 -0.028,-4.81351 -0.17219,-0.4762 -0.38245,-0.83491 -0.46724,-0.79713 -0.0848,0.0377 -1.05209,0.59431 -2.1496,1.23673 -1.81027,1.05965 -1.99579,1.24337 -1.99867,1.97943 -0.002,0.73939 0.17533,0.91525 2.00846,1.98179 1.10641,0.6437 2.08782,1.18382 2.18093,1.20025 0.093,0.0164 0.29752,-0.33798 0.45424,-0.78756 z m -4.12768,-2.56265 c 0,-0.28834 2.11659,-1.7066 2.93416,-1.9661 0.53086,-0.16848 0.94842,0.24416 0.95537,0.94415 0.002,0.27366 -0.5218,0.54006 -1.66092,0.8436 -1.93455,0.51547 -2.22861,0.53902 -2.22861,0.17835 z m -2.31904,1.29441 c 1.01301,-0.54215 0.42996,-2.32696 -0.76015,-2.32696 -0.93986,0 -1.43274,1.84171 -0.61963,2.31531 0.58099,0.33839 0.76634,0.33996 1.37978,0.0111 z m -1.22103,-0.63978 c -0.22779,-0.59363 0.0914,-1.16804 0.64892,-1.16804 0.27473,0 0.56674,0.17519 0.64892,0.38934 0.2278,0.59362 -0.0914,1.16806 -0.64892,1.16806 -0.27472,0 -0.56675,-0.17523 -0.64892,-0.38936 z m -0.49542,-2.50755 c 0.64325,-0.29309 0.66114,-0.37028 0.66114,-2.85525 0,-2.50474 -0.0123,-2.55399 -0.60748,-2.55399 -0.92621,0 -3.69979,1.48702 -4.46107,2.39173 l -0.67671,0.80423 0.7312,0.43965 c 0.40215,0.24181 1.31522,0.79944 2.02902,1.23918 1.51707,0.93462 1.46959,0.92371 2.3239,0.53445 z m -2.51858,-1.15419 c -0.82088,-0.50734 -1.4925,-1.03542 -1.4925,-1.17351 0,-0.39099 1.34305,-1.55782 2.20632,-1.91681 2.03404,-0.84592 1.94675,-0.90511 1.94675,1.31993 0,1.60086 -0.0907,2.06943 -0.45424,2.34534 -0.59869,0.45447 -0.49826,0.48066 -2.20633,-0.57495 z m 7.71513,0.2497 c 1.07456,-0.66313 1.95374,-1.28185 1.95374,-1.37493 0,-0.3091 -1.93431,-2.0281 -2.73442,-2.43005 -0.43321,-0.21764 -1.22164,-0.47712 -1.75208,-0.57663 l -0.96441,-0.18092 v 2.53106 c 0,2.1061 0.0763,2.58894 0.45425,2.87586 0.6907,0.52432 0.93484,0.45658 3.04292,-0.84439 z m -2.66071,0.28252 c -0.50194,-0.35159 -0.57688,-0.63818 -0.57688,-2.20632 0,-1.54773 0.0641,-1.80063 0.45425,-1.79086 1.22841,0.0308 3.91052,1.52431 3.94174,2.19492 0.0104,0.22282 -2.79998,2.20632 -3.12605,2.20632 -0.0639,0 -0.37577,-0.18181 -0.69306,-0.40406 z m 7.81866,0.72853 c -0.57753,-1.70498 -1.52245,-3.34651 -2.57266,-4.46925 l -1.22171,-1.30612 h 9.37991 9.37994 v 2.023 2.02301 l -5.25622,0.332 c -3.98532,0.25173 -5.36193,0.42754 -5.69331,0.72712 -1.11228,1.00559 -3.75306,1.44631 -4.01595,0.67024 z m -24.47858,-0.63298 c -0.29109,-0.31244 -0.52926,-0.66063 -0.52926,-0.77375 0,-0.11308 -0.29507,-0.27975 -0.65574,-0.37028 -0.36068,-0.0905 -0.7557,-0.35556 -0.87781,-0.58896 -0.29582,-0.56535 0.11319,-1.59244 0.63414,-1.59244 0.22833,0 0.80071,-0.40881 1.27196,-0.90847 l 0.85681,-0.90849 h 4.56431 4.5643 l -1.24311,1.24311 c -1.08408,1.08409 -1.70832,2.23005 -2.25677,4.1429 -0.0671,0.23425 -0.88636,0.32446 -2.94631,0.32446 -2.60095,0 -2.90009,-0.0502 -3.38252,-0.56808 z"
         id="path1245" />
    </g>
  </g>
</svg>
